PathFileType	3	(X/Y/Z)	uphill_walking_calibrated.trc																																																																												
DataRate	CameraRate	NumFrames	NumMarkers	Units	OrigDataRate	OrigDataStartFrame	OrigNumFrames																																																																								
100	100	4	26	mm	100	2630	556																																																																								
Frame#	Time	RAcromium			LAcromium			C7			Clavicle			VSacral			RASIS			LASIS			RHip			LHip			RKneeLat			RKneeMed			LKneeMed			LKneeLat			LShankFront			RShankFront			RAnkleLat			RAnkleMed			LAnkleMed			LAnkleLat			LToeLat			LToeTip			RToeTip			RToeLat			RHeel			LHeel			T10		
		X1	Y1	Z1	X2	Y2	Z2	X3	Y3	Z3	X4	Y4	Z4	X5	Y5	Z5	X6	Y6	Z6	X7	Y7	Z7	X8	Y8	Z8	X9	Y9	Z9	X10	Y10	Z10	X11	Y11	Z11	X12	Y12	Z12	X13	Y13	Z13	X14	Y14	Z14	X15	Y15	Z15	X16	Y16	Z16	X17	Y17	Z17	X18	Y18	Z18	X19	Y19	Z19	X20	Y20	Z20	X21	Y21	Z21	X22	Y22	Z22	X23	Y23	Z23	X24	Y24	Z24	X25	Y25	Z25	X26	Y26	Z26
2630	26.29	1196.4392	1341.0562	-488.75967	1168.9801	1356.6208	-744.63354	1163.2393	1407.399	-611.69611	1200.5387	1212.5411	-630.96155	790.19373	1021.7487	-598.84192	944.26892	937.98401	-467.3197	968.0639	951.0304	-726.87427	845.29865	884.15887	-432.36069	894.27814	897.05103	-798.15784	690.08679	452.98975	-462.09692	673.4281	452.19711	-590.44269	1015.9556	473.84152	-607.43713	1038.2389	476.98206	-722.88312	1044.1292	375.90219	-667.90131	680.4953	361.17023	-507.24625	318.97144	181.05583	-482.10443	349.58908	172.64331	-564.19324	802.85938	99.471184	-621.89362	777.1087	84.723648	-707.29089	927.38568	34.315891	-739.20679	990.63214	40.32732	-668.72644	433.69373	23.534019	-522.46405	368.65668	38.866028	-443.75449	207.17616	183.01482	-535.09021	694.77875	14.736101	-670.70862	918.36737	1191.183	-586.55096
2631	26.3	1196.9579	1343.5879	-490.02237	1170.6692	1359.0061	-745.50879	1164.3766	1409.7587	-612.68842	1201.8458	1214.8937	-631.88593	791.31995	1024.5057	-600.48071	945.42285	940.8183	-469.01093	969.99377	953.55939	-727.73718	847.59088	886.05865	-434.55069	895.22406	899.16052	-798.01825	702.29419	451.10202	-462.20532	686.78656	449.06604	-590.87482	1007.1115	473.1832	-608.96545	1029.7301	475.54865	-723.64362	1032.9384	374.00247	-668.87091	693.37323	358.80551	-505.75763	325.96231	189.43892	-482.2981	356.11835	179.23602	-564.42657	792.57727	99.134445	-621.9743	766.72803	84.317284	-707.51794	916.97144	34.285919	-739.34723	980.45056	40.188179	-668.92181	427.69839	19.874409	-522.11633	364.54889	42.732716	-444.33636	214.89111	200.59601	-535.72241	684.21503	14.959811	-670.4585	918.99872	1193.8949	-588.12445
2632	26.31	1197.579	1346.2346	-490.8811	1172.2926	1361.7645	-746.77966	1165.5621	1412.1519	-613.78027	1202.9679	1217.3818	-632.71832	792.20862	1027.571	-601.89813	946.46442	943.82007	-470.62726	971.0379	956.14514	-729.01208	849.95056	888.00427	-436.34277	896.31036	901.81085	-798.14185	715.26593	449.42245	-462.75848	700.96735	446.53806	-591.38947	996.94366	472.59375	-610.87866	1020.8271	474.72528	-724.63824	1023.6346	373.13608	-669.71967	706.93219	357.31509	-506.00128	335.24509	197.88037	-482.88235	364.21741	186.13161	-564.94336	781.65356	98.590675	-622.37543	756.47784	84.073601	-707.64319	906.74884	34.310295	-739.47266	970.29761	40.237049	-669.07251	421.56995	17.104507	-522.17725	361.17206	47.947937	-445.23273	225.73061	219.15939	-536.64862	674.03198	14.816713	-670.5675	920.19739	1196.3839	-589.63599
2633	26.32	1197.9098	1348.9958	-491.69952	1173.6042	1364.4542	-747.49475	1166.5015	1414.8774	-614.44489	1203.9019	1220.0583	-633.38269	792.90778	1030.8594	-603.05914	947.36353	946.95422	-472.1376	971.35394	959.02039	-730.52692	852.18994	890.25507	-438.02451	897.2312	904.61127	-798.91492	728.66217	448.3429	-463.56665	715.91956	444.78003	-592.20905	988.70105	472.88757	-611.89917	1011.413	474.41788	-725.9361	1013.5358	372.58936	-670.75873	720.88263	356.26477	-507.27844	345.97809	206.4736	-483.72449	373.6727	193.50589	-565.6264	771.53351	98.741638	-622.74585	746.26532	84.152336	-707.9234	896.67578	34.286781	-739.60577	959.92407	40.438999	-669.35529	415.18796	13.771971	-522.58466	358.92798	54.374897	-446.51425	239.44957	238.12666	-537.87732	663.94324	14.806688	-670.71484	920.81696	1199.3785	-590.97113
